<?xml version="1.0" encoding="utf-8"?>
<!-- Generator: Adobe Illustrator 23.0.3, SVG Export Plug-In . SVG Version: 6.00 Build 0)  -->
<svg version="1.1" id="Layer_1" xmlns="http://www.w3.org/2000/svg" xmlns:xlink="http://www.w3.org/1999/xlink" x="0px" y="0px"
	 width="125px" height="50px" viewBox="0 0 125 50" style="enable-background:new 0 0 125 50;" xml:space="preserve">
<style type="text/css">
	.st0{fill:#862633;}
	.st1{fill:none;}
	.st2{clip-path:url(#SVGID_2_);fill:#940731;}
	.st3{clip-path:url(#SVGID_4_);fill:#940731;}
	.st4{clip-path:url(#SVGID_6_);fill:#940731;}
</style>
<polygon class="st0" points="14,46.3 12.2,46.3 12.2,42.8 10.6,44.8 10.4,44.8 8.8,42.8 8.8,46.3 7,46.3 7,40.2 8.6,40.2 10.5,42.5 
	12.4,40.2 14,40.2 "/>
<rect x="0.9" y="3" class="st1" width="123.3" height="44"/>
<path class="st0" d="M27,43.3c0,0.6-0.1,1.1-0.4,1.6c-0.3,0.5-0.6,0.8-1.2,1.1c-0.5,0.3-1.1,0.4-1.9,0.4c-0.8,0-1.4-0.2-1.9-0.4
	c-0.5-0.3-0.9-0.7-1.1-1.2c-0.3-0.5-0.4-1-0.4-1.5s0.1-1,0.4-1.5c0.3-0.5,0.6-0.8,1.1-1.1s1.1-0.4,1.9-0.4c0.6,0,1.1,0.1,1.5,0.3
	c0.4,0.2,0.8,0.4,1.1,0.7s0.5,0.6,0.6,1C27,42.4,27,42.8,27,43.3 M25.2,43.3c0-0.2,0-0.4-0.1-0.6s-0.2-0.3-0.3-0.5
	c-0.1-0.1-0.3-0.3-0.5-0.3c-0.2-0.1-0.4-0.1-0.7-0.1c-0.5,0-0.9,0.1-1.1,0.4c-0.3,0.3-0.4,0.7-0.4,1.1s0.1,0.8,0.4,1.1
	s0.7,0.4,1.1,0.4c0.3,0,0.6-0.1,0.9-0.2s0.4-0.3,0.5-0.5C25.1,43.8,25.2,43.5,25.2,43.3"/>
<rect x="0.9" y="3" class="st1" width="123.3" height="44"/>
<polygon class="st0" points="38.5,41.7 36.2,41.7 36.2,46.3 34.4,46.3 34.4,41.7 32.2,41.7 32.2,40.2 38.5,40.2 "/>
<rect x="0.9" y="3" class="st1" width="123.3" height="44"/>
<path class="st0" d="M50.5,43.3c0,0.6-0.1,1.1-0.4,1.6c-0.3,0.5-0.7,0.8-1.2,1.1c-0.5,0.3-1.1,0.4-1.9,0.4c-0.8,0-1.4-0.2-1.9-0.4
	c-0.5-0.3-0.9-0.7-1.2-1.2c-0.3-0.5-0.4-1-0.4-1.5s0.1-1,0.4-1.5c0.3-0.5,0.6-0.8,1.2-1.1s1.2-0.4,1.9-0.4c0.6,0,1.1,0.1,1.5,0.3
	c0.4,0.2,0.8,0.4,1.1,0.7c0.3,0.3,0.5,0.6,0.6,1C50.4,42.4,50.5,42.8,50.5,43.3 M48.6,43.3c0-0.2,0-0.4-0.1-0.6s-0.2-0.3-0.3-0.5
	c-0.1-0.1-0.3-0.3-0.5-0.3c-0.2-0.1-0.4-0.1-0.7-0.1c-0.5,0-0.9,0.1-1.2,0.4c-0.3,0.3-0.4,0.7-0.4,1.1s0.1,0.8,0.4,1.1
	s0.7,0.4,1.2,0.4c0.3,0,0.6-0.1,0.9-0.2s0.4-0.3,0.5-0.5C48.6,43.8,48.6,43.5,48.6,43.3"/>
<rect x="0.9" y="3" class="st1" width="123.3" height="44"/>
<path class="st0" d="M62.5,46.3h-2l-0.5-1.1c-0.2-0.4-0.3-0.7-0.5-0.9S59.3,44,59.2,44s-0.3-0.1-0.5-0.1h-0.2v2.3h-1.8v-6h3.1
	c0.5,0,0.9,0.1,1.2,0.3c0.3,0.2,0.5,0.5,0.7,0.7s0.2,0.6,0.2,0.8c0,0.3-0.1,0.6-0.2,0.8c-0.1,0.2-0.2,0.4-0.4,0.5
	c-0.1,0.1-0.3,0.2-0.4,0.3c0.2,0.1,0.4,0.3,0.5,0.4c0.1,0.2,0.3,0.5,0.5,0.9L62.5,46.3z M60,42.1c0-0.3-0.1-0.5-0.3-0.6
	s-0.5-0.2-0.9-0.2h-0.4v1.5h0.4c0.4,0,0.8,0,0.9-0.2C59.9,42.6,60,42.4,60,42.1"/>
<rect x="0.9" y="3" class="st1" width="123.3" height="44"/>
<path class="st0" d="M73.7,45.8c-0.3,0.1-0.5,0.2-0.8,0.3c-0.3,0.1-0.5,0.1-0.8,0.2c-0.3,0-0.5,0-0.8,0c-0.5,0-1-0.1-1.4-0.2
	s-0.8-0.4-1.1-0.6s-0.5-0.6-0.7-1s-0.2-0.8-0.2-1.3c0-0.5,0.1-1,0.3-1.4s0.4-0.7,0.8-1c0.3-0.3,0.7-0.5,1.1-0.6s0.8-0.2,1.3-0.2
	c0.7,0,1.5,0.2,2.3,0.5v1.6c-0.3-0.2-0.6-0.3-0.9-0.5s-0.6-0.2-1-0.2c-0.3,0-0.7,0.1-1,0.2s-0.6,0.3-0.7,0.6
	c-0.2,0.3-0.3,0.6-0.3,0.9c0,0.3,0.1,0.6,0.2,0.8c0.2,0.3,0.4,0.5,0.7,0.6s0.6,0.2,1,0.2c0.3,0,0.6,0,0.8-0.1s0.5-0.2,0.7-0.2
	s0.4-0.2,0.6-0.3L73.7,45.8L73.7,45.8z"/>
<rect x="0.9" y="3" class="st1" width="123.3" height="44"/>
<polygon class="st0" points="85.9,40.2 83.5,43.5 83.5,46.3 81.7,46.3 81.7,43.5 79.3,40.2 81.2,40.2 82.5,42.1 83.9,40.2 "/>
<rect x="0.9" y="3" class="st1" width="123.3" height="44"/>
<path class="st0" d="M96.7,45.8c-0.3,0.1-0.5,0.2-0.8,0.3c-0.3,0.1-0.5,0.1-0.8,0.2c-0.3,0-0.5,0-0.8,0c-0.5,0-1-0.1-1.4-0.2
	s-0.8-0.4-1.1-0.6s-0.5-0.6-0.7-1s-0.2-0.8-0.2-1.3c0-0.5,0.1-1,0.3-1.4s0.4-0.7,0.8-1c0.3-0.3,0.7-0.5,1.1-0.6
	c0.4-0.1,0.8-0.2,1.3-0.2c0.7,0,1.5,0.2,2.3,0.5v1.6c-0.3-0.2-0.6-0.3-0.9-0.5s-0.6-0.2-1-0.2c-0.3,0-0.7,0.1-1,0.2
	c-0.3,0.1-0.6,0.3-0.7,0.6c-0.2,0.3-0.3,0.6-0.3,0.9c0,0.3,0.1,0.6,0.2,0.8c0.2,0.3,0.4,0.5,0.7,0.6s0.6,0.2,1,0.2
	c0.3,0,0.6,0,0.8-0.1s0.5-0.2,0.7-0.2s0.4-0.2,0.6-0.3L96.7,45.8L96.7,45.8z"/>
<rect x="0.9" y="3" class="st1" width="123.3" height="44"/>
<polygon class="st0" points="107.5,46.3 102.9,46.3 102.9,40.2 104.8,40.2 104.8,44.8 107.5,44.8 "/>
<rect x="0.9" y="3" class="st1" width="123.3" height="44"/>
<polygon class="st0" points="118.2,46.3 113.6,46.3 113.6,40.2 118.1,40.2 118.1,41.4 115.4,41.4 115.4,42.5 118,42.5 118,43.8 
	115.4,43.8 115.4,45.1 118.2,45.1 "/>
<g>
	<defs>
		<rect id="SVGID_1_" x="0.9" y="3" width="123.3" height="44"/>
	</defs>
	<clipPath id="SVGID_2_">
		<use xlink:href="#SVGID_1_"  style="overflow:visible;"/>
	</clipPath>
	<path class="st2" d="M85.5,16.6c0,0,2.5,0,3-2.1c0,0,0.6-1.9-2.3-1.8c0,0-2.8,0.2-3.1,2.5C83.2,15.2,83.1,16.6,85.5,16.6"/>
</g>
<rect x="0.9" y="3" class="st1" width="123.3" height="44"/>
<path class="st0" d="M35.3,4.3c-1.7,0.4-3,1-3.9,1.4C30,6.4,29,7.3,28.3,8.1c-5.6,0.2-9.6,1.1-11.8,3.1c-1.4,1.2-1.9,2.8-1.5,4.5
	c0.4,1.5,1.8,2.8,4.1,3.1v0c0,0,0.1,0,0.1,0c0.1,0,0.2,0,0.3,0c0.2,0,0.3,0,0.5,0c0.2,0,0.4,0,0.6,0c0.2,0,0.5,0,0.7-0.1
	c0.3,0,0.5-0.1,0.8-0.1c0.3-0.1,0.5-0.1,0.8-0.2c0.3-0.1,0.5-0.2,0.8-0.4c0.3-0.1,0.5-0.3,0.7-0.5c0.2-0.2,0.4-0.4,0.6-0.6
	c0.2-0.3,0.4-0.5,0.5-0.8c-0.1,0-3.6,1.1-5.4,0c-1.2-0.8-0.8-2.1-0.5-2.7c0.3-0.5,1.1-1.4,2.8-2.1c0.9-0.4,2.4-0.9,4.4-1
	c0,0.1,0,0.1-0.1,0.2c-0.3,1-1.8,6.1,3.7,8.9l-0.1,0.1c-1.4,3.1-2.9,5.4-4.6,7.2c-2.2,2.5-4.7,4.4-7.5,5.4c-3,1-5.6,0.8-6.6,0.7
	c-0.7-0.1-1.5-0.3-2.1-0.7c-2.9-1.3-3.3-3.5-3.4-4.4c0-0.1,0-0.3,0-0.4c0-2.4,2-3.5,3.4-4c0.6-0.2,2-0.5,3.4-0.2c0,0,0,0,0,0
	c0.7,0.2,1.2,0.7,1.3,1.3c0,0.1,0,0.1,0,0.2c0,0,0,0,0,0c0,0,0,0,0,0c-0.1,0.6-0.7,1.1-1.5,1.3c-0.5,0.1-1.4,0.3-2.6,0.3
	c1,1.1,2.8,1.8,4.1,1.9c1.5,0.2,3.5,0,4.9-1.2c1.8-1.6,1-6-7.5-6.1c-7-0.1-10.2,3.6-10.4,6.3c0,0-0.5,2.9,1.9,5.3
	c0.9,0.9,2.7,2,5.3,2.7c1.2,0.3,2.6,0.6,4.2,0.6c1.2,0.1,2.5,0,4-0.1c1.6-0.2,4-0.6,6.5-1.6c2.8-1.2,6.3-3.4,9.3-7.4
	c2-2.7,3.8-5.9,3.9-6.2c0,0,2.8,0.1,4.9-1.3c0.2-0.1,0.6-0.4,1-0.8c0.1-0.1,0.2-0.2,0.2-0.3c0.4-0.5,0.7-1,0.8-1.3
	c1.1-2.6-0.6-4.5-1.4-5.2c-0.2-0.2-0.4-0.3-0.6-0.5l0.2-0.4c0-0.1,0.1-0.1,0.1-0.1c0,0,0.1-0.1,0.1-0.1c1.5-2.1,3-3.4,4.9-5.1
	c0.6-0.5,1.2-1,1.8-1.4l0,0C42.8,3.3,38.4,3.6,35.3,4.3 M32.7,15.4c-0.3,0.4-0.5,0.7-0.6,0.9c-0.1,0-0.3-0.1-0.3-0.1c0,0,0,0,0,0
	c0,0,0,0-0.1,0l0,0c-0.5-0.3-1.5-1.2-1.2-3.3c0.1-1.1,0.6-2.1,0.8-2.4c0.8,0,2.9,0,4.7,0.7C34.6,12.6,33.5,14.2,32.7,15.4
	 M41.4,15.9c-0.9,1.7-2.5,1.8-3.5,1.7c0.7-1.2,1.7-3,2.7-4.6C41.4,13.7,42,14.7,41.4,15.9 M37.6,9.4c-1.7-0.5-3.4-0.8-4.5-0.9
	c-0.2,0-0.3-0.1-0.5-0.1c3-2.8,7.2-3,9.6-2.9C40.3,6.8,39,8,37.6,9.4"/>
<g>
	<defs>
		<rect id="SVGID_3_" x="0.9" y="3" width="123.3" height="44"/>
	</defs>
	<clipPath id="SVGID_4_">
		<use xlink:href="#SVGID_3_"  style="overflow:visible;"/>
	</clipPath>
	<path class="st3" d="M121.9,33.3L121.9,33.3c0.2,0,0.3,0.1,0.3,0.2c0,0.2-0.1,0.3-0.2,0.3h-0.1L121.9,33.3L121.9,33.3z M121.9,34.7
		v-0.8l0,0l0.3,0.8h0.4l-0.3-0.8c0.2-0.1,0.3-0.3,0.3-0.5c0-0.5-0.4-0.5-0.6-0.5h-0.3v1.8C121.6,34.7,121.9,34.7,121.9,34.7z"/>
</g>
<g>
	<defs>
		<rect id="SVGID_5_" x="0.9" y="3" width="123.3" height="44"/>
	</defs>
	<clipPath id="SVGID_6_">
		<use xlink:href="#SVGID_5_"  style="overflow:visible;"/>
	</clipPath>
	<path class="st4" d="M120.6,33.9c0,0.8,0.7,1.5,1.5,1.5s1.5-0.7,1.5-1.5s-0.7-1.5-1.5-1.5C121.2,32.4,120.6,33,120.6,33.9
		 M120.9,33.9c0-0.6,0.5-1.1,1.1-1.1s1.1,0.5,1.1,1.1s-0.5,1.1-1.1,1.1S120.9,34.5,120.9,33.9"/>
</g>
<rect x="0.9" y="3" class="st1" width="123.3" height="44"/>
<path class="st0" d="M117.5,29.7l4.8-7.3c2.8-4.3-2.7-4.1-2.7-4.1c-2.8,0.1-5.2,1.1-5.2,1.1c-0.9-1.4-2.7-1.1-2.7-1.1
	c-3.5,0-8.7,6.5-8.7,6.5c-1,1.1-4.3,4.9-4.3,4.9L98.3,30c-0.3,0.3-0.8,0.7-0.8,0.7c-0.3,0.3-0.8,0.4-0.8,0.3
	c-0.2-0.1,0.1-0.6,0.1-0.6l8.1-12.2h-5.1l-0.5,0.8c-1-1.1-3.2-0.8-3.2-0.8c-10.6,1.2-14.4,11.3-14.4,11.3c-0.3,0.2-0.8,0.5-0.8,0.5
	c-1.2,0.8-1.8,1-2.3,0.9c-0.8-0.2-0.3-1-0.3-1l8-11.7h-4.9L77,24.7c0,0,0,0,0,0l-0.8,1.3c-0.9,1.2-1.9,2.4-1.9,2.4
	c-1.9,2.1-3.1,2.9-3.6,2.7c-0.6-0.2-0.3-0.8-0.3-0.8l12.6-18.4h-5.2l-5.1,7.3c-1-1.1-3.2-0.8-3.2-0.8c-10.5,1.2-14.5,11.6-14.5,11.6
	c-2.5,1.7-3,1.2-3.1,0.9c0,0,0,0,0,0c0-0.1,0-0.3,0.1-0.4l5.1-7.9c2.8-4.3-2.7-4.1-2.7-4.1c-2.8,0.1-5.2,1.1-5.2,1.1
	c-0.8-1.1-2.1-1.2-2.5-1.1c0,0-0.1,0-0.1,0c-1.2,0.1-2.4,1.1-3.1,1.6C43.2,20,43.1,20,43,20.1c0,0,0,0-0.1,0l-1.4,1.3L41,22
	c-0.7,0.7-2.1,2.2-4.3,2.2c0,0,0,0,0,0c0.7,2.5,3.8,0.8,6.1-1.5c0,0,0,0,0,0.1c0,0,0,0.1-0.1,0.1c0,0.1-0.1,0.2-0.1,0.2
	c-0.1,0.1-0.1,0.2-0.2,0.3l-7.5,10.9l5.3,0l5.4-7.8l0,0l0,0c1.1-0.1,3-0.5,3.7-2.3c-0.2,0-0.8,0.2-1.3,0.1c-0.3,0-0.8-0.2-0.3-1.2
	c0,0,0,0,0,0l0.1-0.2c0.3-0.5,0.5-0.8,0.9-1c0.6-0.3,1.6-0.7,2.6-0.2c0.8,0.4,0.2,1.3,0,1.7c-4.3,6.2-5.6,8.3-5.9,9.1
	c0,0.1-0.1,0.4-0.1,0.6c0,0.2,0.1,0.5,0.3,0.7c0,0,0,0,0,0c0,0,0,0,0,0c0.7,0.8,2.5,0.8,2.5,0.8c2.2,0.2,6.8-2.5,6.8-2.5
	c1.5,2.7,5.2,2.4,5.2,2.4c2.6,0,4.5-1.5,4.5-1.5c0.8,1.5,3.2,1.4,3.2,1.4c1.6,0,2.8-0.8,3.1-1c0.3-0.2,0.9-0.6,0.9-0.6
	c1.2,2.1,3.9,1.6,3.9,1.6c1.4,0,3.4-0.8,4.9-1.7c0.6-0.3,0.9-0.5,0.9-0.5c1.5,2.7,5.2,2.4,5.2,2.4c2.6,0,4.5-1.5,4.5-1.5
	c0.8,1.5,3.2,1.4,3.2,1.4c1.6,0,3-0.9,3-0.9c0.5-0.3,0.9-0.6,1.2-0.8l0.9-0.8c0.2-0.2,0.6-0.6,1.1-1.1l5.5-6.4
	c0.6-0.8,1.1-1.3,1.5-1.6c0.9-0.5,0,0.7,0,0.7l-7.5,10.9l5.3,0l5-7.2l0.4-0.6c1.1-0.1,3-0.5,3.7-2.3c-0.2,0-0.8,0.2-1.3,0.1
	c-0.3,0-0.8-0.2-0.3-1.2c0,0,0.1-0.1,0.1-0.1c0.1-0.2,0.3-0.4,0.4-0.6c0,0,0,0,0,0l0,0c0,0,0.4-0.6,1.2-0.9c0,0,0.1,0,0.1,0
	c0.6-0.2,1.3-0.3,2,0.1c0.8,0.4,0.2,1.3-0.1,1.7c0,0,0,0,0,0l0,0c-3.3,4.7-4.8,7-5.4,8.2c-0.1,0.2-0.2,0.5-0.3,0.8
	c-0.1,0.6,0,1.6,1.1,2.1c1.3,0.6,3.8-0.3,5.1-0.8c0.6-0.3,2.6-1.2,4.1-3c0.2-0.2,0.3-0.4,0.4-0.6c-0.8,0.4-2.2,1-3.6,1.3
	C116.5,31.8,117.2,30.3,117.5,29.7C117.5,29.7,117.5,29.7,117.5,29.7 M70,23.1c-0.3,0.3-0.5,0.5-0.6,0.6c-1.1,0.9-2.8,0.5-3.4,0.3
	c0,0.1,0,0.2,0,0.4c0,0.1,0,0.1,0,0.2c0.1,0.6,0.6,1.4,1.5,1.9c-0.4,0.6-1,1.6-1,1.6c-0.2,0.2-0.3,0.5-0.5,0.7
	c-0.2,0.3-0.4,0.5-0.7,0.8c-0.2,0.2-0.4,0.4-0.7,0.6c-0.2,0.2-0.4,0.3-0.6,0.5c-0.2,0.1-0.4,0.2-0.6,0.3c-0.2,0.1-0.3,0.2-0.5,0.2
	c-0.2,0-0.3,0.1-0.5,0.1c-0.1,0-0.3,0-0.4,0.1c-0.1,0-0.2,0-0.3,0c-0.1,0-0.1,0-0.2,0c0,0,0,0-0.1,0c-2-0.1-1.1-2-1.1-2
	c3.9-8.1,9.2-8.5,9.2-8.5C71.7,20.9,70.1,23,70,23.1C70.1,23.1,70.1,23.1,70,23.1 M95.7,24L95.7,24c-1,0.6-2.4,0.3-3,0.1
	c0,0,0,0,0,0.1c0,0,0,0,0,0c0,0.4,0.4,1.7,1.6,2.4c0,0,0,0,0,0c0,0-0.1,0.1-0.1,0.1l-0.4,0.7c-0.1,0.1-0.1,0.2-0.2,0.3
	c-0.2,0.4-0.4,0.7-0.7,1c-0.2,0.3-0.4,0.6-0.7,0.8c-0.2,0.2-0.4,0.4-0.7,0.6c-0.2,0.2-0.4,0.3-0.6,0.5c-0.2,0.1-0.4,0.3-0.6,0.4
	c-0.2,0.1-0.3,0.2-0.5,0.3c-0.2,0.1-0.3,0.1-0.5,0.1c-0.1,0-0.3,0.1-0.4,0.1c-0.1,0-0.2,0-0.3,0c-0.1,0-0.1,0-0.2,0c0,0-0.1,0-0.1,0
	c-2-0.1-1.1-2-1.1-2c3.9-8.1,9.1-8.5,9.1-8.5c1.9,0,0.6,1.8,0.6,1.8c-0.1,0.1-0.2,0.2-0.2,0.3c-0.3,0.3-0.5,0.5-0.7,0.7
	c0,0-0.1,0.1-0.1,0.1c0,0,0,0,0,0C95.8,23.8,95.8,23.9,95.7,24C95.7,23.9,95.7,24,95.7,24"/>
</svg>
